<svg width="784" height="784" viewBox="0 0 784 784" fill="none" xmlns="http://www.w3.org/2000/svg">
<rect width="784" height="784" fill="#1A1C20"/>
<path d="M338.3 306.079C347.795 306.079 356.901 309.851 363.615 316.565C370.329 323.278 374.1 332.384 374.1 341.879C374.1 348.502 372.131 354.588 369.088 359.779C369.088 359.779 356.2 356.199 338.3 356.199C320.4 356.199 307.512 359.779 307.512 359.779C304.469 354.588 302.5 348.502 302.5 341.879C302.5 332.384 306.272 323.278 312.986 316.565C319.7 309.851 328.806 306.079 338.3 306.079V306.079ZM445.7 306.079C465.569 306.079 481.5 322.01 481.5 341.879C481.5 348.502 479.531 354.588 476.488 359.779C476.488 359.779 463.6 356.199 445.7 356.199C427.8 356.199 414.912 359.779 414.912 359.779C411.869 354.588 409.9 348.502 409.9 341.879C409.9 322.01 425.831 306.079 445.7 306.079V306.079ZM392 551.309C424.469 551.335 456.131 541.2 482.55 522.325C508.968 503.45 528.818 476.781 539.317 446.057L515.689 437.823C497.61 490.807 447.848 526.249 392 526.249C336.152 526.249 286.39 490.807 268.311 437.823L244.683 446.057C255.182 476.781 275.032 503.45 301.451 522.325C327.869 541.2 359.532 551.335 392 551.309Z" fill="#F7F7F8"/>
</svg>
